<svg width="52" height="52" viewBox="0 0 52 52" fill="none" xmlns="http://www.w3.org/2000/svg">
<path d="M36.8333 4.33333H43.3333C43.908 4.33333 44.4591 4.56161 44.8654 4.96794C45.2717 5.37426 45.5 5.92536 45.5 6.5V45.5C45.5 46.0746 45.2717 46.6257 44.8654 47.0321C44.4591 47.4384 43.908 47.6667 43.3333 47.6667H8.66667C8.09203 47.6667 7.54093 47.4384 7.1346 47.0321C6.72827 46.6257 6.5 46.0746 6.5 45.5V6.5C6.5 5.92536 6.72827 5.37426 7.1346 4.96794C7.54093 4.56161 8.09203 4.33333 8.66667 4.33333H15.1667V0H19.5V4.33333H32.5V0H36.8333V4.33333ZM36.8333 8.66667V13H32.5V8.66667H19.5V13H15.1667V8.66667H10.8333V43.3333H41.1667V8.66667H36.8333ZM15.1667 17.3333H36.8333V21.6667H15.1667V17.3333ZM15.1667 26H36.8333V30.3333H15.1667V26Z" fill="#FF4545"/>
</svg>
