<svg width="25" height="25" viewBox="0 0 25 25" fill="none" xmlns="http://www.w3.org/2000/svg">
<path d="M7.03125 3.125C5.99525 3.125 5.00168 3.53655 4.26911 4.26911C3.53655 5.00168 3.125 5.99525 3.125 7.03125V17.9688C3.125 19.0048 3.53655 19.9983 4.26911 20.7309C5.00168 21.4634 5.99525 21.875 7.03125 21.875H12.7688C13.8043 21.8748 14.7974 21.4634 15.5297 20.7312L20.7312 15.5297C21.4634 14.7974 21.8748 13.8043 21.875 12.7688V7.03125C21.875 5.99525 21.4634 5.00168 20.7309 4.26911C19.9983 3.53655 19.0048 3.125 17.9688 3.125H7.03125ZM4.6875 7.03125C4.6875 6.40965 4.93443 5.81351 5.37397 5.37397C5.81351 4.93443 6.40965 4.6875 7.03125 4.6875H17.9688C18.5904 4.6875 19.1865 4.93443 19.626 5.37397C20.0656 5.81351 20.3125 6.40965 20.3125 7.03125V12.5H16.4062C15.3702 12.5 14.3767 12.9116 13.6441 13.6441C12.9116 14.3767 12.5 15.3702 12.5 16.4062V20.3125H7.03125C6.40965 20.3125 5.81351 20.0656 5.37397 19.626C4.93443 19.1865 4.6875 18.5904 4.6875 17.9688V7.03125ZM14.0625 19.9219V16.4062C14.0625 15.7846 14.3094 15.1885 14.749 14.749C15.1885 14.3094 15.7846 14.0625 16.4062 14.0625H19.9219C19.8359 14.1922 19.7375 14.3125 19.625 14.425L14.425 19.6266C14.3141 19.7375 14.1922 19.8359 14.0625 19.9234V19.9219Z" fill="black"/>
</svg>
